<svg width="1024" height="1024" viewBox="0 0 1024 1024" fill="white" xmlns="http://www.w3.org/2000/svg">
<rect width="1024" height="1024" fill="white"/>
<path fill-rule="evenodd" clip-rule="evenodd" d="M0 0H1024V1024H0V0Z" fill="#337AB7"/>
<path d="M196.058 729.817C196.058 686.852 222.766 662.079 260.312 662.079C297.085 662.079 318.761 685.497 318.761 725.559V904H388.821V714.721C388.821 642.919 348.178 602.857 286.44 602.857C240.765 602.857 211.735 623.565 197.994 657.24H194.51V507.636H125.998V904H196.058V729.817Z" fill="white"/>
<path d="M589.906 909.806C676.997 909.806 732.349 848.455 732.349 756.525C732.349 664.401 676.997 602.857 589.906 602.857C502.814 602.857 447.463 664.401 447.463 756.525C447.463 848.455 502.814 909.806 589.906 909.806ZM590.293 853.68C542.102 853.68 518.491 810.715 518.491 756.331C518.491 701.947 542.102 658.402 590.293 658.402C637.71 658.402 661.321 701.947 661.321 756.331C661.321 810.715 637.71 853.68 590.293 853.68Z" fill="white"/>
</svg>
