<svg xmlns="http://www.w3.org/2000/svg" width="32" height="32" viewBox="0 0 24 24"><path fill="green" d="M20.13 4.155a5 5 0 0 0-4.39-1.07A6 6 0 0 0 12 5.665a6 6 0 0 0-3.72-2.58a5.09 5.09 0 0 0-4.4 1c-1.58 1.38-2.45 4.44-1.46 7.54c.112.342.246.676.4 1c.04.075.077.152.11.23c2.57 5.24 8.51 8 8.77 8.13a.672.672 0 0 0 .31.07a.702.702 0 0 0 .31-.07c.25-.11 6.25-2.85 8.8-8.15l.08-.17c.158-.34.295-.691.41-1.05c.94-3 .08-6.06-1.48-7.46m-.31 7.93c-.14.314-.3.618-.48.91h-3.31a1 1 0 0 1-.83-.45l-1.05-1.56l-2.23 4.46a1 1 0 0 1-.73.54h-.16a1 1 0 0 1-.71-.3l-2.71-2.7H4.7a10.595 10.595 0 0 1-.5-1a6.336 6.336 0 0 1-.38-1h4.21a.999.999 0 0 1 .71.29l2 2l2.38-4.76a1 1 0 0 1 .84-.55a1 1 0 0 1 .89.44l1.7 2.56h3.7a6.572 6.572 0 0 1-.43 1.12"/></svg>